<?xml version="1.0" encoding="UTF-8" standalone="no"?>
<svg
   xmlns:dc="http://purl.org/dc/elements/1.1/"
   xmlns:cc="http://creativecommons.org/ns#"
   xmlns:rdf="http://www.w3.org/1999/02/22-rdf-syntax-ns#"
   xmlns:svg="http://www.w3.org/2000/svg"
   xmlns="http://www.w3.org/2000/svg"
   viewBox="0 0 226.24001 213.28"
   height="213.28"
   width="226.24001"
   xml:space="preserve"
   id="svg2"
   version="1.1"><metadata
     id="metadata8"><rdf:RDF><cc:Work
         rdf:about=""><dc:format>image/svg+xml</dc:format><dc:type
           rdf:resource="http://purl.org/dc/dcmitype/StillImage" /></cc:Work></rdf:RDF></metadata><defs
     id="defs6"><clipPath
       id="clipPath20"
       clipPathUnits="userSpaceOnUse"><path
         id="path18"
         d="M 0,1599.64 V 0 h 1696.76 v 1599.64 z" /></clipPath></defs><g
     transform="matrix(1.3333333,0,0,-1.3333333,0,213.28)"
     id="g10"><g
       transform="scale(0.1)"
       id="g12"><g
         id="g14"><g
           clip-path="url(#clipPath20)"
           id="g16"><path
             id="path22"
             style="fill:#1f6636;fill-opacity:1;fill-rule:nonzero;stroke:none"
             d="m 780.422,1083.04 c -0.164,24.75 17.336,46.22 24.488,60.46 0.695,1.39 1.516,3.02 2.246,4.51 -1.051,5.82 -2.543,11.42 -4.394,16.82 -1.125,3.28 -2.399,6.48 -3.789,9.61 -1.387,3.11 -2.922,6.13 -4.547,9.09 -11.012,20.04 -27.387,36.84 -46.238,50.79 -3.559,2.63 -7.215,5.15 -10.926,7.59 -3.489,2.29 -7.016,4.51 -10.606,6.63 -43.574,25.68 -93.429,38.93 -120.043,43.87 -1.484,-4.27 -3.738,-8.61 -7.121,-12.7 -5.086,-6.16 -14.32,-13.49 -29.449,-13.49 -20.57,0 -41.418,4.48 -61.574,8.82 -9.403,2.01 -18.531,3.98 -27.145,5.39 -0.672,-4.56 -2.097,-9.31 -4.625,-14.09 -4.398,-8.32 -13.429,-18.75 -31.508,-21.17 -13.808,-1.83 -36.445,-0.17 -60.918,1.89 -15.488,1.3 -31.457,2.64 -44.535,2.83 -0.629,-2.82 -1.582,-5.74 -2.922,-8.7 -9.183,-20.25 -29.593,-24.93 -36.3,-26.47 -3.735,-0.86 -9.883,-1.94 -21.328,-3.95 -13.168,-2.3 -44.372,-7.76 -67.11,-13.04 0.313,-4.52 -0.098,-9.41 -1.617,-14.61 -3.457,-11.8 -11.84,-20.84 -23,-24.79 -41.106,-14.56 -94.5508,-43.22 -132.1602,-75.29 37.6094,-32.08 91.0542,-60.73 132.1642,-75.29 11.156,-3.96 19.543,-12.996 22.996,-24.801 1.519,-5.195 1.93,-10.09 1.617,-14.617 22.699,-5.262 53.899,-10.723 67.063,-13.023 11.472,-2.012 17.64,-3.098 21.382,-3.957 6.7,-1.536 27.11,-6.215 36.293,-26.469 1.34,-2.961 2.293,-5.871 2.922,-8.703 13.078,0.195 29.055,1.535 44.547,2.836 24.477,2.058 47.106,3.722 60.906,1.886 18.079,-2.414 27.11,-12.843 31.512,-21.168 2.524,-4.781 3.949,-9.527 4.621,-14.086 8.614,1.407 17.742,3.372 27.145,5.391 20.156,4.336 41.004,8.816 61.574,8.816 15.129,0 24.363,-7.332 29.449,-13.484 3.383,-4.094 5.637,-8.445 7.121,-12.715 50.207,9.332 183.16,48.215 200.543,144.404 -0.73,1.5 -1.551,3.13 -2.246,4.52 -7.152,14.24 -24.652,35.72 -24.488,60.46" /><path
             id="path24"
             style="fill:#1f6636;fill-opacity:1;fill-rule:nonzero;stroke:none"
             d="m 916.34,1083.04 c 0.16,24.75 -17.336,46.22 -24.488,60.46 -0.7,1.39 -1.516,3.02 -2.25,4.51 1.05,5.82 2.543,11.42 4.394,16.82 1.125,3.28 2.399,6.48 3.793,9.61 1.383,3.11 2.918,6.13 4.547,9.09 11.012,20.04 27.383,36.84 46.234,50.79 3.563,2.63 7.215,5.15 10.926,7.59 3.488,2.29 7.016,4.51 10.606,6.63 43.578,25.68 93.428,38.93 120.038,43.87 1.49,-4.27 3.75,-8.61 7.13,-12.7 5.08,-6.16 14.32,-13.49 29.44,-13.49 20.58,0 41.42,4.48 61.58,8.82 9.4,2.01 18.53,3.98 27.14,5.39 0.68,-4.56 2.1,-9.31 4.63,-14.09 4.4,-8.32 13.43,-18.75 31.51,-21.17 13.81,-1.83 36.44,-0.17 60.92,1.89 15.48,1.3 31.45,2.64 44.53,2.83 0.63,-2.82 1.58,-5.74 2.92,-8.7 9.19,-20.25 29.6,-24.93 36.3,-26.47 3.74,-0.86 9.89,-1.94 21.33,-3.95 13.17,-2.3 44.37,-7.76 67.11,-13.04 -0.31,-4.52 0.1,-9.41 1.62,-14.61 3.46,-11.8 11.84,-20.84 23,-24.79 41.11,-14.56 94.55,-43.22 132.16,-75.29 -37.61,-32.08 -91.05,-60.73 -132.17,-75.29 -11.15,-3.96 -19.54,-12.996 -22.99,-24.801 -1.52,-5.195 -1.93,-10.09 -1.62,-14.617 -22.7,-5.262 -53.9,-10.723 -67.06,-13.023 -11.48,-2.012 -17.64,-3.098 -21.38,-3.957 -6.7,-1.536 -27.11,-6.215 -36.3,-26.469 -1.34,-2.961 -2.29,-5.871 -2.92,-8.703 -13.08,0.195 -29.05,1.535 -44.55,2.836 -24.47,2.058 -47.1,3.722 -60.9,1.886 -18.08,-2.414 -27.11,-12.843 -31.52,-21.168 -2.52,-4.781 -3.94,-9.527 -4.62,-14.086 -8.61,1.407 -17.74,3.372 -27.14,5.391 -20.16,4.336 -41,8.816 -61.58,8.816 -15.12,0 -24.36,-7.332 -29.44,-13.484 -3.38,-4.094 -5.64,-8.445 -7.13,-12.715 -50.2,9.332 -183.156,48.215 -200.538,144.404 0.734,1.5 1.55,3.13 2.25,4.52 7.152,14.24 24.648,35.72 24.488,60.46" /><path
             id="path26"
             style="fill:#1f6636;fill-opacity:1;fill-rule:nonzero;stroke:none"
             d="m 849.219,1599.64 c -25.274,-12.98 -154.817,-85.21 -160.676,-203.95 -0.84,-17.03 14.203,-44 23.191,-64.13 3.387,-7.58 6.063,-13.57 7.672,-17.97 70.02,-29.26 104.992,-63.68 129.813,-116.35 24.816,52.67 59.789,87.09 129.812,116.35 1.61,4.4 4.282,10.39 7.668,17.97 8.992,20.13 24.031,47.1 23.191,64.13 -5.86,118.74 -135.402,190.97 -160.671,203.95" /><path
             id="path28"
             style="fill:#1f6636;fill-opacity:1;fill-rule:nonzero;stroke:none"
             d="m 849.219,566.43 c -25.274,12.968 -154.817,85.203 -160.676,203.949 -0.84,17.031 14.203,43.996 23.191,64.121 3.387,7.586 6.063,13.574 7.672,17.973 70.02,29.265 104.992,63.679 129.813,116.347 24.816,-52.668 59.789,-87.082 129.812,-116.347 1.61,-4.399 4.282,-10.387 7.668,-17.973 8.992,-20.125 24.031,-47.09 23.191,-64.121 C 1004.03,651.633 874.488,579.398 849.219,566.43" /><path
             id="path30"
             style="fill:#1f6636;fill-opacity:1;fill-rule:nonzero;stroke:none"
             d="m 0,298.172 c 0,27.058 0,88.117 68.9102,88.117 63.6758,0 63.6758,-53.648 63.6758,-75.457 V 271.578 H 92.0234 v 47.531 c 0,10.039 0,31.84 -25.2929,31.84 -25.7344,0 -25.7344,-22.668 -25.7344,-38.379 V 142.48 c 0,-17.441 0,-35.761 24.8594,-35.761 25.7343,0 25.7343,20.062 25.7343,38.82 v 57.133 H 132.586 V 150.77 c 0,-34.891 -9.16,-79.3911 -67.6016,-79.3911 -22.6797,0 -44.0508,8.7305 -55.39065,27.4922 C 0,114.57 0,133.332 0,149.461 v 148.711" /><path
             id="path32"
             style="fill:#1f6636;fill-opacity:1;fill-rule:nonzero;stroke:none"
             d="M 217.219,220.559 V 113.25 h 20.933 c 11.778,0 15.711,0.891 17.883,6.121 2.617,5.238 2.617,39.68 2.617,47.957 0,47.551 -1.746,53.231 -18.754,53.231 z m 0,33.57 c 29.664,0 34.011,0 37.5,8.301 3.062,6.531 3.062,31.832 3.062,41.871 0,5.66 -0.429,13.949 -0.875,21.789 -0.871,12.648 -1.742,16.59 -5.23,18.762 -3.047,1.738 -4.363,1.738 -34.457,1.738 z m -39.25,129.101 h 71.961 c 47.101,0 47.976,-17.878 47.976,-76.761 0,-47.098 0,-65.867 -30.972,-67.168 v -2.18 c 10.035,-0.859 25.738,-2.18 29.656,-22.68 0.887,-5.242 1.316,-7.41 1.316,-62.359 0,-61.9414 -3.488,-76.7617 -57.57,-76.7617 H 177.969 V 383.23" /><path
             id="path34"
             style="fill:#1f6636;fill-opacity:1;fill-rule:nonzero;stroke:none"
             d="M 389.953,345.719 V 113.25 h 27.039 c 11.77,0 13.086,6.98 13.086,17.02 v 194.07 c 0,11.789 -0.43,21.379 -16.574,21.379 z m -40.555,37.511 h 74.575 c 43.613,0 47.101,-24.851 47.101,-49.718 V 128.52 c 0,-40.5512 -10.469,-53.1997 -43.613,-53.1997 H 349.398 V 383.23" /><path
             id="path36"
             style="fill:#1f6636;fill-opacity:1;fill-rule:nonzero;stroke:none"
             d="m 834.285,258.289 c 0,9.152 0,42.012 -34.328,42.012 -37.652,0 -37.652,-31.879 -37.652,-47.789 V 135.191 c 0,-8.222 0,-40.0504 34.765,-40.0504 19.832,0 37.215,10.1404 37.215,41.9614 z m -92.687,3.871 c 0,48.762 36.183,58.41 57.925,58.41 55.469,0 55.469,-44.898 55.469,-59.89 V 145.328 c 0,-19.289 -1.418,-33.789 -10.57,-47.2967 -15.477,-22.7227 -41.524,-22.7227 -46.863,-22.7227 -4.36,0 -18.309,0 -32.313,8.2305 -20.758,11.6015 -23.648,30.4019 -23.648,51.1599 V 262.16" /><path
             id="path38"
             style="fill:#1f6636;fill-opacity:1;fill-rule:nonzero;stroke:none"
             d="m 983.262,269.398 c 0,6.762 -10.188,33.793 -36.727,33.793 -33.293,0 -33.293,-32.371 -33.293,-47.793 V 142.93 c 0,-15.469 0,-46.3714 31.879,-46.3714 27.953,0 38.141,29.4804 38.141,36.6714 z m -90.289,-2.886 c 0,25.066 8.664,55.039 49.695,55.039 23.648,0 34.273,-14 40.594,-22.231 v 20.758 h 20.708 V 65.1719 c 0,-14 0,-35.25 -18.798,-51.1602 C 974.055,3.87109 959.125,0 944.141,0 922.887,0 911.281,8.23047 908.395,10.1406 892.48,21.25 891.5,36.7305 891.012,51.6602 h 20.269 c 0.492,-9.1485 0.981,-31.8789 33.348,-31.8789 4.797,0 38.633,0.4882 38.633,38.1484 v 40.5898 c -8.715,-9.6992 -19.832,-21.25 -42.5,-21.25 -47.789,0 -47.789,45.8325 -47.789,66.5895 v 122.653" /><path
             id="path40"
             style="fill:#1f6636;fill-opacity:1;fill-rule:nonzero;stroke:none"
             d="m 1048.65,319.59 h 20.27 V 76.2891 h -20.27 z m 0,65.66 h 20.27 v -37.648 h -20.27 v 37.648" /><path
             id="path42"
             style="fill:#1f6636;fill-opacity:1;fill-rule:nonzero;stroke:none"
             d="m 1129.19,140.48 c 0,-14.929 0,-45.3394 37.65,-45.3394 18.85,0 35.75,7.6874 35.75,40.5394 0,25.558 -5.83,30.41 -40.54,59.832 -27.52,23.218 -43.98,37.66 -43.98,72.418 0,20.761 5.34,52.148 51.17,52.148 50.73,0 50.73,-39.117 50.73,-57.918 v -16.898 h -20.76 c 0,37.168 0,55.527 -29.97,55.527 -30.41,0 -30.41,-20.758 -30.41,-31.391 0,-21.738 0.98,-28.5 47.79,-67.128 23.21,-18.801 36.73,-30.399 36.73,-66.098 0,-18.363 -3.87,-36.7228 -17.39,-48.2736 -7.73,-6.3281 -19.78,-12.0976 -39.12,-12.0976 -30.4,0 -41.52,12.5312 -44.9,16.3984 -13.02,13.9998 -13.02,32.3708 -13.02,69.5308 h 20.27 v -21.25" /><path
             id="path44"
             style="fill:#1f6636;fill-opacity:1;fill-rule:nonzero;stroke:none"
             d="m 1276.86,381.379 h 21.25 V 319.59 h 36.72 v -19.781 h -36.72 v -182 c 0,-13.02 0,-23.1606 17.87,-23.1606 5.29,0 13.51,0.4922 18.85,0.9297 V 76.7813 c -7.24,-0.9805 -14.49,-1.4727 -21.74,-1.4727 -28.5,0 -35.74,10.1328 -35.74,28.5004 v 196 h -26.05 v 19.781 h 25.56 v 61.789" /><path
             id="path46"
             style="fill:#1f6636;fill-opacity:1;fill-rule:nonzero;stroke:none"
             d="m 1374.01,319.59 h 20.27 V 76.2891 h -20.27 z m 0,65.66 h 20.27 v -37.648 h -20.27 v 37.648" /><path
             id="path48"
             style="fill:#1f6636;fill-opacity:1;fill-rule:nonzero;stroke:none"
             d="m 1438.26,257.801 c 0,12.09 0,61.301 55.52,61.301 54.06,0 56.02,-46.321 56.02,-65.172 v -21.25 h -20.27 c 0,27.511 0,33.832 -2.89,43.48 -4.36,14.93 -14.98,25.07 -31.88,25.07 -35.74,0 -35.74,-36.191 -35.74,-44.851 V 152.09 c 0,-25.61 0,-57.9298 38.14,-57.9298 33.78,0 33.78,30.8988 33.78,39.5588 v 35.261 h 21.26 v -31.39 c 0,-16.399 0,-62.7697 -58.91,-62.7697 -29.42,0 -41.96,17.3789 -43.92,20.3203 -10.62,14.9294 -11.11,34.7114 -11.11,50.6794 v 111.981" /><path
             id="path50"
             style="fill:#1f6636;fill-opacity:1;fill-rule:nonzero;stroke:none"
             d="m 1602.6,140.48 c 0,-14.929 0,-45.3394 37.65,-45.3394 18.86,0 35.75,7.6874 35.75,40.5394 0,25.558 -5.83,30.41 -40.54,59.832 -27.52,23.218 -43.98,37.66 -43.98,72.418 0,20.761 5.34,52.148 51.17,52.148 50.73,0 50.73,-39.117 50.73,-57.918 v -16.898 h -20.76 c 0,37.168 0,55.527 -29.97,55.527 -30.41,0 -30.41,-20.758 -30.41,-31.391 0,-21.738 0.99,-28.5 47.79,-67.128 23.22,-18.801 36.73,-30.399 36.73,-66.098 0,-18.363 -3.87,-36.7228 -17.38,-48.2736 -7.74,-6.3281 -19.78,-12.0976 -39.13,-12.0976 -30.4,0 -41.52,12.5312 -44.9,16.3984 -13.02,13.9998 -13.02,32.3708 -13.02,69.5308 h 20.27 v -21.25" /><path
             id="path52"
             style="fill:#1f6636;fill-opacity:1;fill-rule:nonzero;stroke:none"
             d="M 609.969,384.18 H 631.41 V 94.5508 h 80.504 v -19.25 H 609.969 V 384.18" /></g></g></g></g></svg>